<?xml version="1.0" encoding="UTF-8" standalone="no"?>
<!-- Generator: Gravit.io -->
<svg xmlns="http://www.w3.org/2000/svg" xmlns:xlink="http://www.w3.org/1999/xlink" style="isolation:isolate" viewBox="0 0 640 800" width="640pt" height="800pt"><defs><clipPath id="_clipPath_AgzQG2cXa2v4VYRbokHzZKFiJRdarPMf"><rect width="640" height="800"/></clipPath></defs><g clip-path="url(#_clipPath_AgzQG2cXa2v4VYRbokHzZKFiJRdarPMf)"><rect width="640" height="800" style="fill:rgb(0,0,0)" fill-opacity="0"/><path d=" M 320 0 C 143.271 0 0 47.787 0 106.667 L 0 408.889 C 0 499.236 96.32 748.124 320 800 C 543.68 748.124 640 499.236 640 408.889 L 640 106.667 C 640 47.769 496.729 0 320 0 Z  M 177.778 160 C 238.898 160 270.133 214.649 276.676 221.12 C 283.604 227.819 286.38 237.735 283.935 247.057 C 281.49 256.379 274.206 263.657 264.881 266.093 C 255.557 268.529 245.643 265.744 238.951 258.809 C 231.591 251.538 207.787 195.556 160 195.556 C 135.342 195.556 105.831 206.933 71.111 231.111 C 104.089 175.627 142.293 160 177.778 160 Z  M 231.111 293.333 C 214.791 309.44 189.156 320 160 320 C 130.844 320 105.209 309.44 88.889 293.333 C 105.209 277.227 130.844 266.667 160 266.667 C 189.156 266.667 214.791 277.227 231.111 293.333 Z  M 355.556 728.889 L 320 764.444 L 284.444 728.889 L 284.444 640 L 355.556 640 L 355.556 728.889 Z  M 480 568.889 Q 438.93 587.437 355.556 568.889 L 320 533.333 L 284.444 568.889 L 160 568.889 L 71.111 426.667 L 177.778 515.556 L 248.889 515.556 L 302.222 462.222 L 337.778 462.222 L 391.111 515.556 L 462.222 515.556 L 568.889 426.667 Q 536.93 543.179 480 568.889 Z  M 408.889 293.333 C 425.209 277.227 450.844 266.667 480 266.667 C 509.156 266.667 534.791 277.227 551.111 293.333 C 534.791 309.44 509.156 320 480 320 C 450.844 320 425.209 309.44 408.889 293.333 Z  M 480 195.556 C 432.213 195.556 408.409 251.52 401.102 258.898 C 394.404 265.827 384.488 268.602 375.165 266.157 C 365.843 263.713 358.565 256.428 356.129 247.103 C 353.693 237.779 356.478 227.865 363.413 221.173 C 369.849 214.649 401.084 160 462.222 160 C 497.707 160 535.911 175.627 568.889 231.111 C 534.169 206.933 504.658 195.556 480 195.556 Z " fill="rgb(255,255,255)"/></g></svg>